<mxfile host="app.diagrams.net" modified="2021-06-16T17:44:57.579Z" agent="5.0 (Windows)" etag="nOr2aXAGYG4QrBbiYRGt" version="14.7.10" type="github">
  <diagram id="kAapa3jcFL5pjKWKnXlD" name="Page-1">
    <mxGraphModel dx="868" dy="440" grid="1" gridSize="10" guides="1" tooltips="1" connect="1" arrows="1" fold="1" page="1" pageScale="1" pageWidth="850" pageHeight="1100" math="0" shadow="0">
      <root>
        <mxCell id="0" />
        <mxCell id="1" parent="0" />
        <mxCell id="aZCc6lHhp5FMV2r-pWyW-2" value="&lt;p&gt;... nel tantativo di organizzare gli elementi IoT del ciclorifugio per funzionalitÃ  e ruolo.&lt;/p&gt;&lt;p&gt;ByBobo&lt;br&gt;&lt;/p&gt;" style="text;html=1;strokeColor=none;fillColor=none;spacing=5;spacingTop=-20;whiteSpace=wrap;overflow=hidden;rounded=0;" vertex="1" parent="1">
          <mxGeometry x="120" y="40" width="190" height="80" as="geometry" />
        </mxCell>
        <mxCell id="aZCc6lHhp5FMV2r-pWyW-8" value="MQTT" style="edgeStyle=orthogonalEdgeStyle;rounded=0;orthogonalLoop=1;jettySize=auto;html=1;entryX=0;entryY=0.5;entryDx=0;entryDy=0;startArrow=classic;startFill=1;" edge="1" parent="1" source="aZCc6lHhp5FMV2r-pWyW-5" target="aZCc6lHhp5FMV2r-pWyW-6">
          <mxGeometry relative="1" as="geometry" />
        </mxCell>
        <mxCell id="aZCc6lHhp5FMV2r-pWyW-5" value="&lt;div&gt;Sito (prenotazioni, calendario, mappe, ecc)&lt;/div&gt;&lt;div&gt;&lt;br&gt;&lt;/div&gt;&lt;div&gt;Server linux con installato node-red.&lt;/div&gt;&lt;div&gt;&lt;br&gt;&lt;/div&gt;&lt;div&gt;Accesso distinto per utenti e gestori.&lt;br&gt;&lt;/div&gt;" style="rounded=0;whiteSpace=wrap;html=1;" vertex="1" parent="1">
          <mxGeometry x="160" y="210" width="120" height="170" as="geometry" />
        </mxCell>
        <mxCell id="aZCc6lHhp5FMV2r-pWyW-11" style="edgeStyle=orthogonalEdgeStyle;rounded=0;orthogonalLoop=1;jettySize=auto;html=1;entryX=0;entryY=0.5;entryDx=0;entryDy=0;startArrow=classic;startFill=1;" edge="1" parent="1" source="aZCc6lHhp5FMV2r-pWyW-6" target="aZCc6lHhp5FMV2r-pWyW-10">
          <mxGeometry relative="1" as="geometry" />
        </mxCell>
        <mxCell id="aZCc6lHhp5FMV2r-pWyW-6" value="raspberry con installato home assistant" style="rounded=0;whiteSpace=wrap;html=1;" vertex="1" parent="1">
          <mxGeometry x="500" y="265" width="120" height="60" as="geometry" />
        </mxCell>
        <mxCell id="aZCc6lHhp5FMV2r-pWyW-10" value="elementi domotici del ciclorifugio" style="ellipse;whiteSpace=wrap;html=1;" vertex="1" parent="1">
          <mxGeometry x="670" y="255" width="140" height="80" as="geometry" />
        </mxCell>
      </root>
    </mxGraphModel>
  </diagram>
</mxfile>
